<svg height="104" viewBox="0 0 544 104" width="544" xmlns="http://www.w3.org/2000/svg" xmlns:xlink="http://www.w3.org/1999/xlink"><linearGradient id="a" x1="50%" x2="50%" y1="0%" y2="100%"><stop offset="0" stop-color="#00bffb"/><stop offset="1" stop-color="#0270d7"/></linearGradient><linearGradient id="b" x1="50%" x2="50%" y1="0%" y2="100%"><stop offset="0" stop-color="#1f232a" stop-opacity=".48"/><stop offset="1" stop-color="#1f2329" stop-opacity="0"/></linearGradient><linearGradient id="c" x1="87.665%" x2="-3.169%" y1="103.931911%" y2="38.76682%"><stop offset="0" stop-color="#fff" stop-opacity="0"/><stop offset="1" stop-color="#fff" stop-opacity=".64"/></linearGradient><linearGradient id="d" x1="-14.104%" x2="109.871%" y1="111.594788%" y2="26.226555%"><stop offset="0" stop-color="#0270d7"/><stop offset="1" stop-color="#0270d7" stop-opacity="0"/></linearGradient><g fill="none" fill-rule="nonzero"><path d="m19.5977444 6.69527897-25.90225568 45.30148493 25.90225568 45.3079571h51.8045112l25.9022557-45.3079571-25.9022557-45.30148493z" fill="url(#a)" transform="matrix(0 1 -1 0 97.5 6.5)"/><path d="m45.304721 0v103.609023l-45.304721-25.9022561v-51.8045113z" fill="url(#b)"/><path d="m90.6094421 77.8045113-90.6094421-51.8696742 45.3079571-25.9348371 45.301485 25.9348371z" fill="url(#c)"/><path d="m90.6094421 25.9586325-90.6094421 51.8458788v-51.8458788l45.3079571-25.9586325z" fill="url(#d)" fill-opacity=".48"/><path d="m19.372 25.48c2.5760129 0 4.9093229.66266 7 1.988s3.7426606 3.1639882 4.956 5.516 1.82 5.0213184 1.82 8.008-.5973274 5.6653215-1.792 8.036-2.8279896 4.21866-4.9 5.544-4.3586542 1.988-6.86 1.988c-1.792009 0-3.4813254-.3639964-5.068-1.092s-2.9026614-1.6146614-3.948-2.66v.336c0 .9706715-.3173302 1.7826634-.952 2.436-.63466984.6533366-1.43732848.98-2.408.98s-1.77333016-.3173302-2.408-.952-.952-1.455995-.952-2.464v-35.168c0-.9706715.31733016-1.7826634.952-2.436s1.43732848-.98 2.408-.98 1.77333016.3266634 2.408.98c.6346698.6533366.952 1.4653285.952 2.436v11.704c.8960045-1.12 2.1466586-2.0999958 3.752-2.94s3.2853246-1.26 5.04-1.26zm-.84 24.92c2.3893453 0 4.3493257-.895991 5.88-2.688s2.296-4.0319866 2.296-6.72-.7559924-4.9186578-2.268-6.692-3.4813212-2.66-5.908-2.66-4.4053257.8866578-5.936 2.66-2.296 4.0039866-2.296 6.692.7653257 4.927991 2.296 6.72 3.5093212 2.688 5.936 2.688zm42.448-24.36c.9706715 0 1.7733302.3266634 2.408.98s.952 1.4653285.952 2.436v14.224c0 4.0320202-1.1106556 7.1866553-3.332 9.464s-5.3853128 3.416-9.492 3.416-7.2613223-1.1386553-9.464-3.416-3.304-5.4319798-3.304-9.464v-14.224c0-.9706715.3173302-1.7826634.952-2.436s1.4373285-.98 2.408-.98 1.7733302.3266634 2.408.98.952 1.4653285.952 2.436v14.224c0 2.2773447.503995 3.9666612 1.512 5.068s2.5199899 1.652 4.536 1.652c2.0533436 0 3.583995-.5506612 4.592-1.652s1.512-2.7906553 1.512-5.068v-14.224c0-.9706715.3173302-1.7826634.952-2.436s1.4373285-.98 2.408-.98zm26.656-.56c3.808019 0 6.4399927 1.129322 7.896 3.388s2.184 5.3853134 2.184 9.38v14.336c0 .9706715-.3173302 1.7826634-.952 2.436s-1.4373285.98-2.408.98-1.7733302-.3266634-2.408-.98-.952-1.4653285-.952-2.436v-14.336c0-2.0533436-.429329-3.6679941-1.288-4.844s-2.3333229-1.764-4.424-1.764c-2.1653442 0-3.8639938.6253271-5.096 1.876s-1.848 2.8279905-1.848 4.732v14.336c0 .9706715-.3173302 1.7826634-.952 2.436s-1.4373285.98-2.408.98-1.7733302-.3266634-2.408-.98-.952-1.4653285-.952-2.436v-23.128c0-.9706715.3173302-1.7826634.952-2.436s1.4373285-.98 2.408-.98 1.7733302.3266634 2.408.98.952 1.4653285.952 2.436v.952c1.008005-1.3440067 2.3239919-2.5013285 3.948-3.472s3.406657-1.456 5.348-1.456zm41.608-10.92c.970672 0 1.77333.3173302 2.408.952s.952 1.455995.952 2.464v34.608c0 .9706715-.31733 1.7826634-.952 2.436s-1.437328.98-2.408.98-1.763997-.3173302-2.38-.952-.942666-1.4373285-.98-2.408c-.933338 1.0826721-2.193325 2.0066628-3.78 2.772s-3.257325 1.148-5.012 1.148c-2.576013 0-4.909323-.66266-7-1.988s-3.742661-3.1639882-4.956-5.516-1.82-5.0213184-1.82-8.008.597327-5.6653215 1.792-8.036 2.82799-4.21866 4.9-5.544 4.358654-1.988 6.86-1.988c1.792009 0 3.471992.3266634 5.04.98s2.893328 1.483995 3.976 2.492v-10.976c0-.9706715.31733-1.7826634.952-2.436s1.437328-.98 2.408-.98zm-11.312 35.84c2.426679 0 4.405326-.8866578 5.936-2.66s2.296-4.0039866 2.296-6.692-.765326-4.927991-2.296-6.72-3.509321-2.688-5.936-2.688c-2.389345 0-4.349326.895991-5.88 2.688s-2.296 4.0319866-2.296 6.72.755992 4.9186578 2.268 6.692 3.481321 2.66 5.908 2.66zm29.232 2.184c0 .9706715-.326663 1.7826634-.98 2.436s-1.465328.98-2.436.98c-.933338 0-1.71733-.3266634-2.352-.98s-.952-1.4653285-.952-2.436v-34.608c0-.9706715.326663-1.7826634.98-2.436s1.465328-.98 2.436-.98c.933338 0 1.71733.3266634 2.352.98s.952 1.4653285.952 2.436zm34.16-12.264c-.037334.8960045-.391997 1.6239972-1.064 2.184s-1.455996.84-2.352.84h-18.48c.448002 2.2026777 1.474659 3.9293271 3.08 5.18s3.41599 1.876 5.432 1.876c1.530674 0 2.725329-.1399986 3.584-.42s1.539997-.5786651 2.044-.896.849332-.5319994 1.036-.644c.672003-.3360017 1.306664-.504 1.904-.504.784004 0 1.455997.2799972 2.016.84s.84 1.2133296.84 1.96c0 1.008005-.522661 1.9226626-1.568 2.744-1.045339.858671-2.445325 1.5866637-4.2 2.184s-3.527991.896-5.32.896c-3.136016 0-5.870655-.6533268-8.204-1.96s-4.13466-3.1079885-5.404-5.404-1.904-4.881319-1.904-7.756c0-3.2106827.671993-6.0293212 2.016-8.456s3.117322-4.2839936 5.32-5.572 4.554654-1.932 7.056-1.932c2.464012 0 4.787989.6719933 6.972 2.016s3.929327 3.1546553 5.236 5.432 1.96 4.7413201 1.96 7.392zm-14.168-8.68c-4.330688 0-6.887996 2.0346463-7.672 6.104h14.672v-.392c-.149334-1.5680078-.91466-2.9119944-2.296-4.032s-2.949325-1.68-4.704-1.68zm59.416-5.376c.784004 0 1.427997.2519975 1.932.756s.756 1.1666626.756 1.988v24.304c0 .7466704-.251997 1.3813307-.756 1.904s-1.147996.784-1.932.784-1.418664-.2519975-1.904-.756-.728-1.1479961-.728-1.932v-1.456c-.970672 1.3066732-2.295992 2.4173288-3.976 3.332s-3.490657 1.372-5.432 1.372c-2.538679 0-4.84399-.6533268-6.916-1.96s-3.695994-3.126655-4.872-5.46-1.764-4.9559854-1.764-7.868.587994-5.534655 1.764-7.868 2.790656-4.1533268 4.844-5.46 4.311988-1.96 6.776-1.96c1.978677 0 3.817325.4106626 5.516 1.232s3.051995 1.8666603 4.06 3.136v-1.344c0-.7840039.242664-1.4373307.728-1.96s1.119996-.784 1.904-.784zm-11.424 25.368c1.754675 0 3.313327-.4479955 4.676-1.344s2.426663-2.1279922 3.192-3.696 1.148-3.3413234 1.148-5.32c0-1.941343-.382663-3.6959922-1.148-5.264s-1.829327-2.8093288-3.192-3.724-2.921325-1.372-4.676-1.372-3.313327.4479955-4.676 1.344-2.426663 2.1279922-3.192 3.696-1.148 3.3413234-1.148 5.32.382663 3.7519922 1.148 5.32 1.829327 2.7999955 3.192 3.696 2.921325 1.344 4.676 1.344zm36.96-25.648c6.720034 0 10.08 4.0319597 10.08 12.096v15.232c0 .7466704-.251997 1.3813307-.756 1.904s-1.147996.784-1.932.784c-.74667 0-1.371997-.2613307-1.876-.784s-.756-1.1573296-.756-1.904v-15.176c0-2.2026777-.503995-3.9573268-1.512-5.264s-2.650655-1.96-4.928-1.96c-1.493341 0-2.846661.3266634-4.06.98s-2.16533 1.5306612-2.856 2.632-1.036 2.3053268-1.036 3.612v15.176c0 .7466704-.251997 1.3813307-.756 1.904s-1.147996.784-1.932.784-1.418664-.2519975-1.904-.756-.728-1.1479961-.728-1.932v-23.968c0-.7466704.251997-1.3813307.756-1.904s1.12933-.784 1.876-.784c.784004 0 1.427997.2613307 1.932.784s.756 1.1573296.756 1.904v1.96c.970672-1.4933408 2.323991-2.7533282 4.06-3.78s3.593323-1.54 5.572-1.54zm41.832.28c.784004 0 1.427997.2519975 1.932.756s.756 1.1666626.756 1.988v24.304c0 .7466704-.251997 1.3813307-.756 1.904s-1.147996.784-1.932.784-1.418664-.2519975-1.904-.756-.728-1.1479961-.728-1.932v-1.456c-.970672 1.3066732-2.295992 2.4173288-3.976 3.332s-3.490657 1.372-5.432 1.372c-2.538679 0-4.84399-.6533268-6.916-1.96s-3.695994-3.126655-4.872-5.46-1.764-4.9559854-1.764-7.868.587994-5.534655 1.764-7.868 2.790656-4.1533268 4.844-5.46 4.311988-1.96 6.776-1.96c1.978677 0 3.817325.4106626 5.516 1.232s3.051995 1.8666603 4.06 3.136v-1.344c0-.7840039.242664-1.4373307.728-1.96s1.119996-.784 1.904-.784zm-11.424 25.368c1.754675 0 3.313327-.4479955 4.676-1.344s2.426663-2.1279922 3.192-3.696 1.148-3.3413234 1.148-5.32c0-1.941343-.382663-3.6959922-1.148-5.264s-1.829327-2.8093288-3.192-3.724-2.921325-1.372-4.676-1.372-3.313327.4479955-4.676 1.344-2.426663 2.1279922-3.192 3.696-1.148 3.3413234-1.148 5.32.382663 3.7519922 1.148 5.32 1.829327 2.7999955 3.192 3.696 2.921325 1.344 4.676 1.344zm27.776 1.68c0 .7466704-.261331 1.3813307-.784 1.904s-1.15733.784-1.904.784-1.371997-.2613307-1.876-.784-.756-1.1573296-.756-1.904v-36.064c0-.7466704.261331-1.3813307.784-1.904s1.15733-.784 1.904-.784 1.371997.2613307 1.876.784.756 1.1573296.756 1.904zm29.4-26.936c.784004 0 1.427997.2613307 1.932.784s.756 1.1573296.756 1.904v24.192c0 4.66669-1.287987 8.1573218-3.864 10.472s-5.973312 3.472-10.192 3.472c-1.38134 0-2.743993-.1306654-4.088-.392s-2.445329-.6159978-3.304-1.064c-1.38134-.6346698-2.072-1.4933279-2.072-2.576 0-.1866676.037333-.4293318.112-.728.224001-.6346698.541331-1.1199983.952-1.456s.877331-.504 1.4-.504c.298668 0 .578665.0559994.84.168 1.157339.5226693 2.183996.9333318 3.08 1.232s1.941327.448 3.136.448c5.786696 0 8.68-2.9679703 8.68-8.904v-1.12c-1.008005 1.3440067-2.305325 2.3893296-3.892 3.136s-3.406656 1.12-5.46 1.12c-3.098682 0-5.515991-.9893234-7.252-2.968s-2.604-4.5733173-2.604-7.784v-16.744c0-.7840039.242664-1.4279975.728-1.932s1.119996-.756 1.904-.756 1.427997.2613307 1.932.784.756 1.1573296.756 1.904v15.344c0 2.4640123.541328 4.2839941 1.624 5.46s2.725322 1.764 4.928 1.764c2.128011 0 3.88266-.6719933 5.264-2.016s2.072-3.0799894 2.072-5.208v-15.344c0-.7840039.242664-1.4279975.728-1.932s1.119996-.756 1.904-.756zm29.176 24.696c.709337 0 1.306664.233331 1.792.7s.728 1.0546631.728 1.764-.242664 1.297331-.728 1.764-1.082663.7-1.792.7h-18.088c-.709337 0-1.297331-.2613307-1.764-.784s-.7-1.0639972-.7-1.624c.037334-.4853358.111999-.8866651.224-1.204s.317332-.6813313.616-1.092l14.672-19.6h-12.152c-.709337 0-1.306664-.2426642-1.792-.728s-.728-1.0826631-.728-1.792.233331-1.2879978.7-1.736 1.07333-.672 1.82-.672h17.192c.709337 0 1.297331.2613307 1.764.784s.681334 1.1573296.644 1.904c-.037334.3733352-.102666.6999986-.196.98s-.289332.5879983-.588.924l-14.784 19.712zm33.6-10.864c-.037334.6720034-.317331 1.241331-.84 1.708s-1.138663.7-1.848.7h-19.712c.261335 2.725347 1.297324 4.9093251 3.108 6.552s4.022654 2.464 6.636 2.464c1.792009 0 3.247994-.2613307 4.368-.784s2.109329-1.1946626 2.968-2.016c.560003-.3360017 1.101331-.504 1.624-.504.63467 0 1.166665.2239978 1.596.672s.644.9706637.644 1.568c0 .7840039-.37333 1.4933302-1.12 2.128-1.082672 1.0826721-2.519991 1.9973296-4.312 2.744s-3.621324 1.12-5.488 1.12c-3.024015 0-5.683989-.6346603-7.98-1.904s-4.069327-3.0426553-5.32-5.32-1.876-4.853319-1.876-7.728c0-3.1360157.643994-5.8893215 1.932-8.26s2.986656-4.1906603 5.096-5.46 4.377321-1.904 6.804-1.904c2.389345 0 4.629323.6159938 6.72 1.848s3.77066 2.9306558 5.04 5.096 1.922666 4.5919866 1.96 7.28zm-13.72-9.296c-2.090677 0-3.901326.5879941-5.432 1.764s-2.538664 2.9959877-3.024 5.46h16.52v-.448c-.186668-1.9786766-1.073325-3.6026603-2.66-4.872s-3.38799-1.904-5.404-1.904zm34.496-4.928c.970672 0 1.810663.2519975 2.52.756s1.064 1.1293296 1.064 1.876c0 .8960045-.233331 1.577331-.7 2.044s-1.035997.7-1.708.7c-.336002 0-.839997-.1119989-1.512-.336-.784004-.2613346-1.399998-.392-1.848-.392-1.157339 0-2.286661.4013293-3.388 1.204s-1.99733 1.903993-2.688 3.304-1.036 2.9586581-1.036 4.676v13.496c0 .7466704-.251997 1.3813307-.756 1.904s-1.147996.784-1.932.784-1.418664-.2519975-1.904-.756-.728-1.1479961-.728-1.932v-23.968c0-.7466704.251997-1.3813307.756-1.904s1.12933-.784 1.876-.784c.784004 0 1.427997.2613307 1.932.784s.756 1.1573296.756 1.904v2.856c.821337-1.8293425 2.053325-3.3133276 3.696-4.452s3.509323-1.7266665 5.6-1.764z" fill="#fff" transform="translate(116 17)"/></g></svg>